<svg width="172" height="102" viewBox="0 0 172 102" fill="none" xmlns="http://www.w3.org/2000/svg">
<path d="M137.859 65.9124C137.859 65.4397 138.016 64.9145 138.331 64.5469C139.119 63.549 140.537 63.3914 141.483 64.1792C142.481 64.967 143.479 65.7023 144.581 66.4376C145.264 66.9103 146 67.4355 146.682 67.9607C155.138 74.2633 161.231 82.299 164.75 91.8579C165.17 93.0133 164.592 94.3264 163.437 94.7465C162.281 95.1667 160.968 94.589 160.548 93.4335C157.344 84.715 151.777 77.362 144.056 71.5847C143.373 71.112 142.691 70.5868 142.008 70.1141C140.957 69.3263 139.802 68.5385 138.752 67.6981C138.174 67.2254 137.859 66.5952 137.859 65.9124Z" fill="#FF5E14"/>
<path d="M159.237 82.9833C159.237 73.477 162.283 63.603 167.903 55.6723C168.638 54.6744 170.004 54.4118 171.054 55.1471C172.052 55.8824 172.315 57.248 171.579 58.2984C165.067 67.5421 162.336 79.7795 164.437 90.2838C164.542 90.914 164.699 91.5443 164.857 92.122C165.172 93.33 164.489 94.538 163.281 94.8531C162.073 95.1682 160.865 94.4855 160.55 93.2775C160.34 92.5947 160.182 91.8594 160.077 91.1766C159.5 88.4981 159.237 85.7669 159.237 82.9833Z" fill="#FF5E14"/>
<path d="M0.568111 36.2396C0.568111 30.935 3.56182 21.7963 12.0703 13.603C18.4778 7.40548 30.0325 -5.87177e-06 48.4674 -5.06596e-06C68.1103 -4.20734e-06 87.9108 8.14078 100.673 23.9497C102.512 23.7921 104.35 23.7396 106.241 23.7396C121.209 23.7396 134.602 30.5148 144.949 43.2774C154.193 54.7271 160.915 70.6935 164.329 89.4436C164.539 90.6515 163.751 91.807 162.543 92.0696C161.335 92.2797 160.127 91.4919 159.917 90.2839C156.661 72.2691 150.253 56.9855 141.482 46.1136C131.871 34.2438 120.054 28.2564 106.293 28.2564C105.505 28.2564 104.718 28.2564 103.877 28.3089C110.547 38.3405 114.644 50.9455 114.644 66.1242C114.644 75.8931 110.442 84.9267 102.827 91.6494C96.0516 97.5843 87.0705 101.103 78.7196 101.103C70.5788 101.103 63.7511 97.2692 58.8666 90.0213C54.5074 83.5087 52.0914 74.4225 52.0914 64.496C52.0914 47.1115 69.0557 28.6766 95.3163 24.5799C83.4465 11.292 65.957 4.4643 48.5725 4.46429C17.6375 4.46429 5.13746 26.8908 5.13746 36.2396C5.13746 47.3741 10.2845 57.5107 14.5913 64.0758C15.274 65.1262 15.0114 66.4918 13.961 67.1746C12.9106 67.8573 11.545 67.5947 10.8623 66.5443C6.08284 59.5065 0.56811 48.477 0.568111 36.2396ZM98.5726 28.6766C87.8058 29.9371 77.9318 33.8236 70.2112 39.9161C61.4927 46.7964 56.5032 55.7775 56.5032 64.496C56.5032 73.5296 58.6565 81.7229 62.5431 87.5003C66.5347 93.4352 72.1019 96.5864 78.6671 96.5864C93.5306 96.5864 110.127 84.0864 110.127 66.1242C110.075 50.8405 105.663 38.3405 98.5726 28.6766Z" fill="#FF5E14"/>
</svg>
