<svg width="206" height="87" viewBox="0 0 206 87" fill="none" xmlns="http://www.w3.org/2000/svg">
<path d="M174.06 31.1202C173.807 31.1202 173.606 31.0698 173.353 31.0194C172.243 30.6159 171.637 29.4057 171.99 28.2963C173.505 23.9092 175.322 20.329 177.593 17.3538C182.389 11.0505 189.455 7.26852 196.32 3.5874C198.188 2.57887 199.904 1.6712 201.62 0.662668C202.63 0.0575517 203.993 0.410536 204.548 1.46949C205.154 2.47802 204.8 3.83953 203.74 4.39422C201.974 5.40275 200.106 6.41128 198.289 7.36938C191.828 10.8488 185.215 14.3786 180.975 19.9255C179.007 22.5477 177.341 25.7246 176.028 29.6578C175.776 30.5655 174.968 31.1202 174.06 31.1202Z" fill="white"/>
<path d="M182.641 8.227C174.615 8.227 167.044 6.86549 160.028 4.14246C158.917 3.68862 158.362 2.47839 158.816 1.36901C159.27 0.25963 160.482 -0.29506 161.592 0.158777C171.637 4.09204 182.944 4.94928 195.261 2.83138C197.381 2.42796 199.147 1.67157 201.166 0.81432C201.469 0.713468 201.722 0.562188 202.024 0.461336C203.135 0.00749819 204.397 0.511762 204.851 1.62114C205.305 2.73052 204.801 3.99118 203.69 4.44502C203.387 4.54587 203.135 4.69715 202.832 4.798C200.662 5.70568 198.643 6.5125 196.068 7.06719H196.018C191.424 7.82359 186.932 8.227 182.641 8.227Z" fill="white"/>
<path d="M2.18551 86.4889C1.3274 86.4889 0.519765 85.9847 0.166425 85.1779C-0.287869 84.0685 0.216903 82.8078 1.3274 82.354C5.06271 80.7908 7.63704 76.5045 10.1609 72.3191C13.4419 66.8731 16.7734 61.2253 23.1335 61.2253C28.8374 61.2253 31.2099 64.4526 33.0775 67.0748C34.9956 69.697 36.51 71.714 41.1539 71.714C45.1416 71.714 48.2711 66.8731 51.6026 61.7296C55.9941 54.922 60.9914 47.2068 69.9763 47.2068C72.9545 47.2068 75.125 48.5179 76.3364 50.9383C77.2955 52.8041 77.5479 55.1237 77.7498 57.3929C78.3555 62.9398 78.9612 65.0577 83.0499 65.0577C87.5423 65.0577 92.2367 57.8468 96.7797 50.8879C102.887 41.559 109.803 31.0199 119.747 31.0199C123.482 31.0199 125.4 34.7011 127.419 38.6343C129.893 43.4248 132.467 48.417 138.12 48.417C141.099 48.417 143.067 45.7949 146.802 40.248C153.415 30.5157 164.52 14.2784 197.229 2.78116C198.34 2.37774 199.602 2.98286 200.005 4.09224C200.409 5.20162 199.803 6.46228 198.693 6.86569C167.296 17.9091 157.15 32.8353 150.386 42.7188C146.399 48.5179 143.521 52.7537 138.12 52.7537C129.842 52.7537 126.208 45.7444 123.583 40.6009C122.372 38.2309 120.857 35.3062 119.747 35.3062C112.125 35.3062 106.168 44.4333 100.414 53.2075C94.9625 61.5279 89.8643 69.344 83.0499 69.344C74.7212 69.344 73.964 62.4356 73.4592 57.8468C72.904 52.8545 72.3992 51.493 69.9258 51.493C63.2628 51.493 59.1742 57.8468 55.1865 63.9988C51.4007 69.8987 47.4635 75.9498 41.1034 75.9498C34.2385 75.9498 31.6642 72.3696 29.5441 69.5457C27.8279 67.1252 26.6669 65.5116 23.1335 65.5116C19.2468 65.5116 16.7229 69.697 13.8457 74.5379C11.12 79.0763 8.04086 84.2702 2.99314 86.3881C2.74076 86.4385 2.4379 86.4889 2.18551 86.4889Z" fill="white"/>
</svg>
