<svg width="181" height="53" viewBox="0 0 181 53" fill="none" xmlns="http://www.w3.org/2000/svg">
<path d="M7.32 38.3V25.47L29.79 9.07L35.98 13.59L42.19 9.06L29.79 0L0 21.75V38.3H7.32Z" fill="#FF5E14"/>
<path d="M31.58 38.3V25.47L54.05 9.07L66.45 9.06L54.05 0L24.26 21.75V38.3H31.58Z" fill="#FF5E14"/>
<path d="M52.584 48V21.4H63.262C66.0233 21.4 68.126 22.046 69.57 23.338C71.0393 24.6047 71.774 26.2387 71.774 28.24C71.774 29.912 71.318 31.2547 70.406 32.268C69.5193 33.256 68.43 33.9273 67.138 34.282C68.658 34.586 69.912 35.346 70.9 36.562C71.888 37.7527 72.382 39.146 72.382 40.742C72.382 42.8447 71.622 44.58 70.102 45.948C68.582 47.316 66.4287 48 63.642 48H52.584ZM57.448 32.572H62.54C63.908 32.572 64.9593 32.2553 65.694 31.622C66.4287 30.9887 66.796 30.0893 66.796 28.924C66.796 27.8093 66.4287 26.9353 65.694 26.302C64.9847 25.6433 63.908 25.314 62.464 25.314H57.448V32.572ZM57.448 44.048H62.882C64.326 44.048 65.4407 43.7187 66.226 43.06C67.0367 42.376 67.442 41.426 67.442 40.21C67.442 38.9687 67.024 37.9933 66.188 37.284C65.352 36.5747 64.2247 36.22 62.806 36.22H57.448V44.048ZM85.0307 48.456C82.6747 48.456 80.8507 47.7213 79.5587 46.252C78.292 44.7827 77.6587 42.6293 77.6587 39.792V29.152H82.4847V39.336C82.4847 40.9573 82.814 42.1987 83.4727 43.06C84.1313 43.9213 85.17 44.352 86.5887 44.352C87.9313 44.352 89.0333 43.8707 89.8947 42.908C90.7813 41.9453 91.2247 40.6027 91.2247 38.88V29.152H96.0887V48H91.7947L91.4147 44.808C90.832 45.9227 89.9833 46.8093 88.8687 47.468C87.7793 48.1267 86.5 48.456 85.0307 48.456ZM102.602 48V29.152H106.896L107.276 32.344C107.858 31.2293 108.694 30.3427 109.784 29.684C110.898 29.0253 112.203 28.696 113.698 28.696C116.028 28.696 117.84 29.4307 119.132 30.9C120.424 32.3693 121.07 34.5227 121.07 37.36V48H116.206V37.816C116.206 36.1947 115.876 34.9533 115.218 34.092C114.559 33.2307 113.533 32.8 112.14 32.8C110.772 32.8 109.644 33.2813 108.758 34.244C107.896 35.2067 107.466 36.5493 107.466 38.272V48H102.602ZM135.031 48.456C133.359 48.456 131.89 48.19 130.623 47.658C129.356 47.1007 128.343 46.3407 127.583 45.378C126.823 44.4153 126.367 43.3007 126.215 42.034H131.117C131.269 42.7687 131.674 43.402 132.333 43.934C133.017 44.4407 133.891 44.694 134.955 44.694C136.019 44.694 136.792 44.4787 137.273 44.048C137.78 43.6173 138.033 43.1233 138.033 42.566C138.033 41.7553 137.678 41.2107 136.969 40.932C136.26 40.628 135.272 40.3367 134.005 40.058C133.194 39.8807 132.371 39.6653 131.535 39.412C130.699 39.1587 129.926 38.842 129.217 38.462C128.533 38.0567 127.976 37.55 127.545 36.942C127.114 36.3087 126.899 35.536 126.899 34.624C126.899 32.952 127.558 31.546 128.875 30.406C130.218 29.266 132.092 28.696 134.499 28.696C136.728 28.696 138.502 29.2153 139.819 30.254C141.162 31.2927 141.96 32.724 142.213 34.548H137.615C137.336 33.1547 136.285 32.458 134.461 32.458C133.549 32.458 132.84 32.6353 132.333 32.99C131.852 33.3447 131.611 33.788 131.611 34.32C131.611 34.8773 131.978 35.3207 132.713 35.65C133.448 35.9793 134.423 36.2833 135.639 36.562C136.956 36.866 138.16 37.208 139.249 37.588C140.364 37.9427 141.25 38.4873 141.909 39.222C142.568 39.9313 142.897 40.9573 142.897 42.3C142.922 43.4653 142.618 44.5167 141.985 45.454C141.352 46.3913 140.44 47.126 139.249 47.658C138.058 48.19 136.652 48.456 135.031 48.456ZM157.77 48.456C155.946 48.456 154.299 48.038 152.83 47.202C151.386 46.366 150.233 45.2133 149.372 43.744C148.536 42.2493 148.118 40.5267 148.118 38.576C148.118 36.6253 148.548 34.9153 149.41 33.446C150.271 31.9513 151.424 30.786 152.868 29.95C154.337 29.114 155.984 28.696 157.808 28.696C159.606 28.696 161.228 29.114 162.672 29.95C164.141 30.786 165.294 31.9513 166.13 33.446C166.991 34.9153 167.422 36.6253 167.422 38.576C167.422 40.5267 166.991 42.2493 166.13 43.744C165.294 45.2133 164.141 46.366 162.672 47.202C161.202 48.038 159.568 48.456 157.77 48.456ZM157.77 44.238C159.036 44.238 160.138 43.7693 161.076 42.832C162.013 41.8693 162.482 40.4507 162.482 38.576C162.482 36.7013 162.013 35.2953 161.076 34.358C160.138 33.3953 159.049 32.914 157.808 32.914C156.516 32.914 155.401 33.3953 154.464 34.358C153.552 35.2953 153.096 36.7013 153.096 38.576C153.096 40.4507 153.552 41.8693 154.464 42.832C155.401 43.7693 156.503 44.238 157.77 44.238Z" fill="white"/>
<path d="M52.584 48H51.584V49H52.584V48ZM52.584 21.4V20.4H51.584V21.4H52.584ZM69.57 23.338L68.9032 24.0832L68.9101 24.0894L68.9171 24.0954L69.57 23.338ZM70.406 32.268L69.6627 31.599L69.6618 31.6001L70.406 32.268ZM67.138 34.282L66.8733 33.3177L66.9419 35.2626L67.138 34.282ZM70.9 36.562L70.1238 37.1926L70.1304 37.2006L70.9 36.562ZM70.102 45.948L70.771 46.6913L70.102 45.948ZM57.448 32.572H56.448V33.572H57.448V32.572ZM65.694 31.622L65.0411 30.8646L65.694 31.622ZM65.694 26.302L65.0135 27.0348L65.0271 27.0474L65.0411 27.0594L65.694 26.302ZM57.448 25.314V24.314H56.448V25.314H57.448ZM57.448 44.048H56.448V45.048H57.448V44.048ZM66.226 43.06L66.8686 43.8262L66.8709 43.8243L66.226 43.06ZM66.188 37.284L66.835 36.5215L66.188 37.284ZM57.448 36.22V35.22H56.448V36.22H57.448ZM53.584 48V21.4H51.584V48H53.584ZM52.584 22.4H63.262V20.4H52.584V22.4ZM63.262 22.4C65.881 22.4 67.7074 23.0133 68.9032 24.0832L70.2368 22.5928C68.5446 21.0787 66.1656 20.4 63.262 20.4V22.4ZM68.9171 24.0954C70.1582 25.1653 70.774 26.5191 70.774 28.24H72.774C72.774 25.9583 71.9205 24.044 70.2229 22.5806L68.9171 24.0954ZM70.774 28.24C70.774 29.7235 70.3741 30.8086 69.6627 31.599L71.1493 32.937C72.2619 31.7007 72.774 30.1005 72.774 28.24H70.774ZM69.6618 31.6001C68.9045 32.4439 67.9821 33.0133 66.8733 33.3177L67.4027 35.2463C68.8779 34.8414 70.1342 34.0681 71.1502 32.9359L69.6618 31.6001ZM66.9419 35.2626C68.2311 35.5204 69.2809 36.1551 70.1239 37.1926L71.6761 35.9314C70.5431 34.5369 69.0849 33.6516 67.3341 33.3014L66.9419 35.2626ZM70.1304 37.2006C70.9645 38.2057 71.382 39.3712 71.382 40.742H73.382C73.382 38.9208 72.8115 37.2996 71.6696 35.9234L70.1304 37.2006ZM71.382 40.742C71.382 42.5703 70.7356 44.0324 69.433 45.2047L70.771 46.6913C72.5084 45.1276 73.382 43.119 73.382 40.742H71.382ZM69.433 45.2047C68.1543 46.3556 66.272 47 63.642 47V49C66.5853 49 69.0097 48.2764 70.771 46.6913L69.433 45.2047ZM63.642 47H52.584V49H63.642V47ZM57.448 33.572H62.54V31.572H57.448V33.572ZM62.54 33.572C64.0503 33.572 65.3685 33.2229 66.3469 32.3794L65.0411 30.8646C64.5502 31.2878 63.7657 31.572 62.54 31.572V33.572ZM66.3469 32.3794C67.3464 31.5178 67.796 30.316 67.796 28.924H65.796C65.796 29.8626 65.511 30.4595 65.0411 30.8646L66.3469 32.3794ZM67.796 28.924C67.796 27.5666 67.3361 26.3973 66.3469 25.5446L65.0411 27.0594C65.5213 27.4734 65.796 28.052 65.796 28.924H67.796ZM66.3745 25.5692C65.407 24.6709 64.0388 24.314 62.464 24.314V26.314C63.7772 26.314 64.5623 26.6158 65.0135 27.0348L66.3745 25.5692ZM62.464 24.314H57.448V26.314H62.464V24.314ZM56.448 25.314V32.572H58.448V25.314H56.448ZM57.448 45.048H62.882V43.048H57.448V45.048ZM62.882 45.048C64.4662 45.048 65.8419 44.6873 66.8686 43.8262L65.5834 42.2938C65.0394 42.75 64.1858 43.048 62.882 43.048V45.048ZM66.8709 43.8243C67.9411 42.9213 68.442 41.6725 68.442 40.21H66.442C66.442 41.1795 66.1322 41.8307 65.5811 42.2957L66.8709 43.8243ZM68.442 40.21C68.442 38.7185 67.9261 37.4473 66.835 36.5215L65.541 38.0465C66.1219 38.5394 66.442 39.2189 66.442 40.21H68.442ZM66.835 36.5215C65.7706 35.6184 64.3906 35.22 62.806 35.22V37.22C64.0587 37.22 64.9334 37.5309 65.541 38.0465L66.835 36.5215ZM62.806 35.22H57.448V37.22H62.806V35.22ZM56.448 36.22V44.048H58.448V36.22H56.448ZM79.5587 46.252L78.8012 46.905L78.8077 46.9123L79.5587 46.252ZM77.6587 29.152V28.152H76.6587V29.152H77.6587ZM82.4847 29.152H83.4847V28.152H82.4847V29.152ZM83.4727 43.06L82.6783 43.6674L83.4727 43.06ZM89.8947 42.908L89.1591 42.2305L89.1542 42.2358L89.1494 42.2412L89.8947 42.908ZM91.2247 29.152V28.152H90.2247V29.152H91.2247ZM96.0887 29.152H97.0887V28.152H96.0887V29.152ZM96.0887 48V49H97.0887V48H96.0887ZM91.7947 48L90.8017 48.1182L90.9066 49H91.7947V48ZM91.4147 44.808L92.4076 44.6898L92.0256 41.4806L90.5284 44.3447L91.4147 44.808ZM88.8687 47.468L88.3599 46.607L88.3512 46.6123L88.8687 47.468ZM85.0307 47.456C82.8981 47.456 81.3732 46.8012 80.3096 45.5917L78.8077 46.9123C80.3281 48.6414 82.4512 49.456 85.0307 49.456V47.456ZM80.3161 45.5991C79.2645 44.3792 78.6587 42.498 78.6587 39.792H76.6587C76.6587 42.7607 77.3195 45.1861 78.8012 46.9049L80.3161 45.5991ZM78.6587 39.792V29.152H76.6587V39.792H78.6587ZM77.6587 30.152H82.4847V28.152H77.6587V30.152ZM81.4847 29.152V39.336H83.4847V29.152H81.4847ZM81.4847 39.336C81.4847 41.0732 81.8346 42.5642 82.6783 43.6674L84.267 42.4525C83.7934 41.8332 83.4847 40.8415 83.4847 39.336H81.4847ZM82.6783 43.6674C83.5817 44.8488 84.963 45.352 86.5887 45.352V43.352C85.377 43.352 84.6809 42.9938 84.267 42.4525L82.6783 43.6674ZM86.5887 45.352C88.2031 45.352 89.5805 44.7588 90.6399 43.5748L89.1494 42.2412C88.4861 42.9825 87.6596 43.352 86.5887 43.352V45.352ZM90.6302 43.5855C91.735 42.386 92.2247 40.7723 92.2247 38.88H90.2247C90.2247 40.433 89.8276 41.5047 89.1591 42.2305L90.6302 43.5855ZM92.2247 38.88V29.152H90.2247V38.88H92.2247ZM91.2247 30.152H96.0887V28.152H91.2247V30.152ZM95.0887 29.152V48H97.0887V29.152H95.0887ZM96.0887 47H91.7947V49H96.0887V47ZM92.7876 47.8818L92.4076 44.6898L90.4217 44.9262L90.8017 48.1182L92.7876 47.8818ZM90.5284 44.3447C90.0347 45.2892 89.3191 46.0403 88.3599 46.6071L89.3774 48.3289C90.6475 47.5784 91.6293 46.5561 92.3009 45.2713L90.5284 44.3447ZM88.3512 46.6123C87.4408 47.1628 86.3462 47.456 85.0307 47.456V49.456C86.6538 49.456 88.1179 49.0906 89.3861 48.3237L88.3512 46.6123ZM102.602 48H101.602V49H102.602V48ZM102.602 29.152V28.152H101.602V29.152H102.602ZM106.896 29.152L107.889 29.0338L107.784 28.152H106.896V29.152ZM107.276 32.344L106.283 32.4622L106.665 35.6714L108.162 32.8073L107.276 32.344ZM109.784 29.684L109.275 28.823L109.266 28.8283L109.784 29.684ZM119.132 30.9L118.381 31.5603L119.132 30.9ZM121.07 48V49H122.07V48H121.07ZM116.206 48H115.206V49H116.206V48ZM115.218 34.092L116.012 33.4845V33.4845L115.218 34.092ZM108.758 34.244L108.022 33.5665L108.017 33.5718L108.013 33.5772L108.758 34.244ZM107.466 48V49H108.466V48H107.466ZM103.602 48V29.152H101.602V48H103.602ZM102.602 30.152H106.896V28.152H102.602V30.152ZM105.903 29.2702L106.283 32.4622L108.269 32.2258L107.889 29.0338L105.903 29.2702ZM108.162 32.8073C108.659 31.8567 109.366 31.105 110.301 30.5397L109.266 28.8283C108.023 29.5804 107.058 30.6019 106.39 31.8807L108.162 32.8073ZM110.293 30.5449C111.231 29.9906 112.354 29.696 113.698 29.696V27.696C112.052 27.696 110.566 28.0601 109.275 28.8231L110.293 30.5449ZM113.698 29.696C115.801 29.696 117.315 30.3484 118.381 31.5603L119.883 30.2397C118.364 28.513 116.256 27.696 113.698 27.696V29.696ZM118.381 31.5603C119.453 32.78 120.07 34.6582 120.07 37.36H122.07C122.07 34.3871 121.394 31.9587 119.883 30.2397L118.381 31.5603ZM120.07 37.36V48H122.07V37.36H120.07ZM121.07 47H116.206V49H121.07V47ZM117.206 48V37.816H115.206V48H117.206ZM117.206 37.816C117.206 36.0788 116.856 34.5878 116.012 33.4845L114.423 34.6994C114.897 35.3188 115.206 36.3105 115.206 37.816H117.206ZM116.012 33.4845C115.112 32.3076 113.747 31.8 112.14 31.8V33.8C113.319 33.8 114.006 34.1537 114.423 34.6994L116.012 33.4845ZM112.14 31.8C110.507 31.8 109.108 32.388 108.022 33.5665L109.493 34.9215C110.181 34.1747 111.037 33.8 112.14 33.8V31.8ZM108.013 33.5772C106.939 34.7771 106.466 36.3867 106.466 38.272H108.466C108.466 36.712 108.854 35.6362 109.503 34.9108L108.013 33.5772ZM106.466 38.272V48H108.466V38.272H106.466ZM107.466 47H102.602V49H107.466V47ZM130.623 47.658L130.22 48.5733L130.228 48.5767L130.236 48.58L130.623 47.658ZM127.583 45.378L126.798 45.9976L127.583 45.378ZM126.215 42.034V41.034H125.088L125.222 42.1531L126.215 42.034ZM131.117 42.034L132.096 41.8314L131.931 41.034H131.117V42.034ZM132.333 43.934L131.705 44.7119L131.721 44.7251L131.738 44.7376L132.333 43.934ZM137.273 44.048L136.625 43.2861L136.616 43.2943L136.606 43.3028L137.273 44.048ZM136.969 40.932L136.575 41.8511L136.589 41.8572L136.603 41.8628L136.969 40.932ZM134.005 40.058L134.22 39.0814L134.219 39.0811L134.005 40.058ZM131.535 39.412L131.245 40.369L131.535 39.412ZM129.217 38.462L128.707 39.3223L128.726 39.3333L128.745 39.3435L129.217 38.462ZM127.545 36.942L126.718 37.5043L126.723 37.5122L126.729 37.52L127.545 36.942ZM128.875 30.406L128.228 29.6437L128.221 29.6498L128.875 30.406ZM139.819 30.254L139.2 31.0393L139.207 31.045L139.819 30.254ZM142.213 34.548V35.548H143.361L143.203 34.4104L142.213 34.548ZM137.615 34.548L136.634 34.7441L136.795 35.548H137.615V34.548ZM132.333 32.99L131.759 32.1708L131.75 32.1777L131.74 32.1849L132.333 32.99ZM135.639 36.562L135.864 35.5876L135.862 35.5873L135.639 36.562ZM139.249 37.588L138.92 38.5322L138.933 38.5367L138.946 38.5409L139.249 37.588ZM141.909 39.222L141.164 39.8895L141.17 39.896L141.176 39.9025L141.909 39.222ZM142.897 42.3H141.897V42.3109L141.897 42.3217L142.897 42.3ZM141.985 45.454L141.156 44.8941L141.985 45.454ZM139.249 47.658L138.841 46.745L139.249 47.658ZM135.031 47.456C133.464 47.456 132.131 47.2066 131.01 46.736L130.236 48.58C131.648 49.1734 133.254 49.456 135.031 49.456V47.456ZM131.026 46.7427C129.889 46.2426 129.014 45.577 128.368 44.7584L126.798 45.9976C127.672 47.1043 128.823 47.9587 130.22 48.5733L131.026 46.7427ZM128.368 44.7584C127.727 43.9462 127.339 43.0064 127.208 41.9149L125.222 42.1531C125.395 43.5949 125.919 44.8845 126.798 45.9976L128.368 44.7584ZM126.215 43.034H131.117V41.034H126.215V43.034ZM130.138 42.2366C130.343 43.2269 130.89 44.0544 131.705 44.7119L132.961 43.1561C132.458 42.7496 132.195 42.3104 132.096 41.8314L130.138 42.2366ZM131.738 44.7376C132.633 45.4007 133.731 45.694 134.955 45.694V43.694C134.051 43.694 133.401 43.4806 132.928 43.1304L131.738 44.7376ZM134.955 45.694C136.116 45.694 137.188 45.4657 137.94 44.7932L136.606 43.3028C136.395 43.4916 135.922 43.694 134.955 43.694V45.694ZM137.921 44.8099C138.603 44.2297 139.033 43.4738 139.033 42.566H137.033C137.033 42.7728 136.956 43.005 136.625 43.2861L137.921 44.8099ZM139.033 42.566C139.033 42.0148 138.911 41.4745 138.605 41.0038C138.295 40.5285 137.849 40.2032 137.335 40.0012L136.603 41.8628C136.799 41.9395 136.884 42.0258 136.929 42.0952C136.977 42.1692 137.033 42.3065 137.033 42.566H139.033ZM137.363 40.0129C136.57 39.6731 135.512 39.3657 134.22 39.0814L133.79 41.0346C135.031 41.3076 135.949 41.5829 136.575 41.8511L137.363 40.0129ZM134.219 39.0811C133.435 38.9097 132.637 38.7011 131.825 38.455L131.245 40.369C132.105 40.6296 132.954 40.8517 133.791 41.0349L134.219 39.0811ZM131.825 38.455C131.047 38.2191 130.336 37.9269 129.689 37.5805L128.745 39.3435C129.517 39.7571 130.351 40.0982 131.245 40.369L131.825 38.455ZM129.727 37.6017C129.155 37.2631 128.705 36.8499 128.361 36.364L126.729 37.52C127.246 38.2501 127.911 38.8503 128.707 39.3223L129.727 37.6017ZM128.372 36.3797C128.074 35.9418 127.899 35.3745 127.899 34.624H125.899C125.899 35.6975 126.154 36.6756 126.718 37.5043L128.372 36.3797ZM127.899 34.624C127.899 33.2559 128.421 32.1213 129.529 31.1622L128.221 29.6498C126.694 30.9707 125.899 32.6481 125.899 34.624H127.899ZM129.522 31.1683C130.627 30.2299 132.242 29.696 134.499 29.696V27.696C131.942 27.696 129.808 28.3021 128.228 29.6437L129.522 31.1683ZM134.499 29.696C136.578 29.696 138.109 30.1794 139.2 31.0393L140.438 29.4687C138.894 28.2512 136.879 27.696 134.499 27.696V29.696ZM139.207 31.045C140.324 31.9094 141.002 33.0963 141.222 34.6856L143.203 34.4104C142.917 32.3517 141.999 30.676 140.431 29.463L139.207 31.045ZM142.213 33.548H137.615V35.548H142.213V33.548ZM138.596 34.3519C138.411 33.4303 137.946 32.6614 137.17 32.1469C136.422 31.6517 135.486 31.458 134.461 31.458V33.458C135.26 33.458 135.761 33.6126 136.065 33.8141C136.34 33.9962 136.54 34.2724 136.634 34.7441L138.596 34.3519ZM134.461 31.458C133.436 31.458 132.497 31.6547 131.759 32.1708L132.906 33.8092C133.182 33.616 133.662 33.458 134.461 33.458V31.458ZM131.74 32.1849C131.039 32.7012 130.611 33.4275 130.611 34.32H132.611C132.611 34.1485 132.664 33.9881 132.926 33.7951L131.74 32.1849ZM130.611 34.32C130.611 35.4403 131.395 36.1549 132.304 36.5625L133.122 34.7375C132.842 34.612 132.711 34.4989 132.656 34.4325C132.616 34.3838 132.611 34.3575 132.611 34.32H130.611ZM132.304 36.5625C133.121 36.929 134.166 37.2505 135.416 37.5367L135.862 35.5873C134.679 35.3162 133.774 35.0297 133.122 34.7375L132.304 36.5625ZM135.414 37.5364C136.702 37.8336 137.87 38.166 138.92 38.5322L139.578 36.6438C138.449 36.25 137.211 35.8984 135.864 35.5876L135.414 37.5364ZM138.946 38.5409C139.922 38.8516 140.645 39.3104 141.164 39.8895L142.654 38.5545C141.855 37.6642 140.805 37.0337 139.552 36.6351L138.946 38.5409ZM141.176 39.9025C141.606 40.3655 141.897 41.1113 141.897 42.3H143.897C143.897 40.8033 143.529 39.4972 142.642 38.5415L141.176 39.9025ZM141.897 42.3217C141.918 43.2869 141.67 44.1338 141.156 44.8941L142.814 46.0139C143.566 44.8996 143.926 43.6438 143.897 42.2783L141.897 42.3217ZM141.156 44.8941C140.643 45.6543 139.888 46.2773 138.841 46.745L139.657 48.571C140.991 47.9747 142.061 47.1283 142.814 46.0139L141.156 44.8941ZM138.841 46.745C137.806 47.2075 136.545 47.456 135.031 47.456V49.456C136.76 49.456 138.311 49.1725 139.657 48.571L138.841 46.745ZM152.83 47.202L152.329 48.0675L152.335 48.0712L152.83 47.202ZM149.372 43.744L148.499 44.2322L148.504 44.241L148.509 44.2497L149.372 43.744ZM149.41 33.446L150.273 33.9517L150.276 33.9453L149.41 33.446ZM152.868 29.95L152.373 29.0808L152.367 29.0846L152.868 29.95ZM162.672 29.95L162.171 30.8154L162.177 30.8192L162.672 29.95ZM166.13 33.446L165.257 33.9342L165.262 33.943L165.267 33.9517L166.13 33.446ZM166.13 43.744L165.263 43.2447L165.261 43.2495L166.13 43.744ZM162.672 47.202L162.177 46.3328L162.672 47.202ZM161.076 42.832L161.783 43.5392L161.792 43.5296L161.076 42.832ZM161.076 34.358L160.359 35.0557L160.369 35.0651L161.076 34.358ZM154.464 34.358L153.747 33.6604L153.747 33.6606L154.464 34.358ZM154.464 42.832L153.738 43.5197L153.747 43.5296L153.757 43.5391L154.464 42.832ZM157.77 47.456C156.105 47.456 154.631 47.0764 153.324 46.3328L152.335 48.0712C153.967 48.9996 155.787 49.456 157.77 49.456V47.456ZM153.331 46.3366C152.04 45.5891 151.01 44.5617 150.234 43.2383L148.509 44.2497C149.456 45.865 150.732 47.1429 152.329 48.0674L153.331 46.3366ZM150.245 43.2558C149.503 41.9301 149.118 40.3798 149.118 38.576H147.118C147.118 40.6735 147.569 42.5686 148.499 44.2322L150.245 43.2558ZM149.118 38.576C149.118 36.7769 149.513 35.2465 150.272 33.9517L148.547 32.9403C147.583 34.5842 147.118 36.4738 147.118 38.576H149.118ZM150.276 33.9453C151.053 32.5972 152.082 31.5605 153.369 30.8154L152.367 29.0846C150.766 30.0115 149.489 31.3054 148.543 32.9467L150.276 33.9453ZM153.362 30.8192C154.669 30.0756 156.143 29.696 157.808 29.696V27.696C155.825 27.696 154.005 28.1524 152.373 29.0808L153.362 30.8192ZM157.808 29.696C159.445 29.696 160.891 30.0744 162.171 30.8154L163.173 29.0846C161.565 28.1536 159.768 27.696 157.808 27.696V29.696ZM162.177 30.8192C163.486 31.5638 164.509 32.5964 165.257 33.9342L167.003 32.9578C166.079 31.3063 164.796 30.0082 163.166 29.0808L162.177 30.8192ZM165.267 33.9517C166.026 35.2465 166.422 36.7769 166.422 38.576H168.422C168.422 36.4738 167.956 34.5842 166.992 32.9403L165.267 33.9517ZM166.422 38.576C166.422 40.3748 166.026 41.9209 165.263 43.2447L166.996 44.2433C167.956 42.5778 168.422 40.6786 168.422 38.576H166.422ZM165.261 43.2495C164.514 44.5625 163.49 45.5858 162.177 46.3328L163.166 48.0712C164.792 47.1462 166.074 45.8641 166.999 44.2385L165.261 43.2495ZM162.177 46.3328C160.868 47.0776 159.407 47.456 157.77 47.456V49.456C159.73 49.456 161.537 48.9984 163.166 48.0712L162.177 46.3328ZM157.77 45.238C159.315 45.238 160.668 44.6543 161.783 43.5391L160.369 42.1249C159.609 42.8844 158.758 43.238 157.77 43.238V45.238ZM161.792 43.5296C162.973 42.3169 163.482 40.607 163.482 38.576H161.482C161.482 40.2943 161.053 41.4217 160.359 42.1344L161.792 43.5296ZM163.482 38.576C163.482 36.5472 162.974 34.8419 161.783 33.6509L160.369 35.0651C161.052 35.7488 161.482 36.8555 161.482 38.576H163.482ZM161.792 33.6604C160.684 32.522 159.343 31.914 157.808 31.914V33.914C158.756 33.914 159.593 34.2686 160.359 35.0556L161.792 33.6604ZM157.808 31.914C156.234 31.914 154.864 32.513 153.747 33.6604L155.18 35.0556C155.938 34.2776 156.797 33.914 157.808 33.914V31.914ZM153.747 33.6606C152.587 34.8525 152.096 36.554 152.096 38.576H154.096C154.096 36.8487 154.516 35.7382 155.181 35.0554L153.747 33.6606ZM152.096 38.576C152.096 40.6004 152.588 42.3064 153.738 43.5197L155.19 42.1443C154.515 41.4323 154.096 40.301 154.096 38.576H152.096ZM153.757 43.5391C154.872 44.6543 156.224 45.238 157.77 45.238V43.238C156.782 43.238 155.93 42.8844 155.171 42.1249L153.757 43.5391Z" fill="white"/>
<path d="M175.56 48.266C174.673 48.266 173.939 47.9873 173.356 47.43C172.799 46.8727 172.52 46.2013 172.52 45.416C172.52 44.6053 172.799 43.9213 173.356 43.364C173.939 42.8067 174.673 42.528 175.56 42.528C176.447 42.528 177.169 42.8067 177.726 43.364C178.309 43.9213 178.6 44.6053 178.6 45.416C178.6 46.2013 178.309 46.8727 177.726 47.43C177.169 47.9873 176.447 48.266 175.56 48.266Z" fill="#FF5E14"/>
<path d="M173.356 47.43L172.649 48.1371L172.657 48.145L172.665 48.1526L173.356 47.43ZM173.356 43.364L172.665 42.6414L172.657 42.649L172.649 42.6569L173.356 43.364ZM177.726 43.364L177.019 44.0711L177.027 44.079L177.035 44.0866L177.726 43.364ZM177.726 47.43L177.035 46.7074L177.027 46.715L177.019 46.7229L177.726 47.43ZM175.56 47.266C174.903 47.266 174.424 47.0682 174.047 46.7074L172.665 48.1526C173.453 48.9064 174.444 49.266 175.56 49.266V47.266ZM174.063 46.7229C173.693 46.3523 173.52 45.935 173.52 45.416H171.52C171.52 46.4676 171.905 47.393 172.649 48.1371L174.063 46.7229ZM173.52 45.416C173.52 44.8621 173.699 44.435 174.063 44.0711L172.649 42.6569C171.898 43.4077 171.52 44.3486 171.52 45.416H173.52ZM174.047 44.0866C174.424 43.7258 174.903 43.528 175.56 43.528V41.528C174.444 41.528 173.453 41.8876 172.665 42.6414L174.047 44.0866ZM175.56 43.528C176.218 43.528 176.673 43.7254 177.019 44.0711L178.433 42.6569C177.664 41.8879 176.676 41.528 175.56 41.528V43.528ZM177.035 44.0866C177.419 44.4542 177.6 44.8766 177.6 45.416H179.6C179.6 44.3341 179.198 43.3885 178.417 42.6414L177.035 44.0866ZM177.6 45.416C177.6 45.9203 177.426 46.333 177.035 46.7074L178.417 48.1526C179.191 47.4123 179.6 46.4824 179.6 45.416H177.6ZM177.019 46.7229C176.673 47.0686 176.218 47.266 175.56 47.266V49.266C176.676 49.266 177.664 48.9061 178.433 48.1371L177.019 46.7229Z" fill="#FF5E14"/>
</svg>
