<svg width="181" height="53" viewBox="0 0 181 53" fill="none" xmlns="http://www.w3.org/2000/svg">
<path d="M7.32 38.3V25.47L29.79 9.07L35.98 13.59L42.19 9.06L29.79 0L0 21.75V38.3H7.32Z" fill="#FF5E14"/>
<path d="M31.58 38.3V25.47L54.05 9.07L66.45 9.06L54.05 0L24.26 21.75V38.3H31.58Z" fill="#FF5E14"/>
<path d="M52.584 48V21.4H63.262C66.0233 21.4 68.126 22.046 69.57 23.338C71.0393 24.6047 71.774 26.2387 71.774 28.24C71.774 29.912 71.318 31.2547 70.406 32.268C69.5193 33.256 68.43 33.9273 67.138 34.282C68.658 34.586 69.912 35.346 70.9 36.562C71.888 37.7527 72.382 39.146 72.382 40.742C72.382 42.8447 71.622 44.58 70.102 45.948C68.582 47.316 66.4287 48 63.642 48H52.584ZM57.448 32.572H62.54C63.908 32.572 64.9593 32.2553 65.694 31.622C66.4287 30.9887 66.796 30.0893 66.796 28.924C66.796 27.8093 66.4287 26.9353 65.694 26.302C64.9847 25.6433 63.908 25.314 62.464 25.314H57.448V32.572ZM57.448 44.048H62.882C64.326 44.048 65.4407 43.7187 66.226 43.06C67.0367 42.376 67.442 41.426 67.442 40.21C67.442 38.9687 67.024 37.9933 66.188 37.284C65.352 36.5747 64.2247 36.22 62.806 36.22H57.448V44.048ZM85.0307 48.456C82.6747 48.456 80.8507 47.7213 79.5587 46.252C78.292 44.7827 77.6587 42.6293 77.6587 39.792V29.152H82.4847V39.336C82.4847 40.9573 82.814 42.1987 83.4727 43.06C84.1313 43.9213 85.17 44.352 86.5887 44.352C87.9313 44.352 89.0333 43.8707 89.8947 42.908C90.7813 41.9453 91.2247 40.6027 91.2247 38.88V29.152H96.0887V48H91.7947L91.4147 44.808C90.832 45.9227 89.9833 46.8093 88.8687 47.468C87.7793 48.1267 86.5 48.456 85.0307 48.456ZM102.602 48V29.152H106.896L107.276 32.344C107.858 31.2293 108.694 30.3427 109.784 29.684C110.898 29.0253 112.203 28.696 113.698 28.696C116.028 28.696 117.84 29.4307 119.132 30.9C120.424 32.3693 121.07 34.5227 121.07 37.36V48H116.206V37.816C116.206 36.1947 115.876 34.9533 115.218 34.092C114.559 33.2307 113.533 32.8 112.14 32.8C110.772 32.8 109.644 33.2813 108.758 34.244C107.896 35.2067 107.466 36.5493 107.466 38.272V48H102.602ZM135.031 48.456C133.359 48.456 131.89 48.19 130.623 47.658C129.356 47.1007 128.343 46.3407 127.583 45.378C126.823 44.4153 126.367 43.3007 126.215 42.034H131.117C131.269 42.7687 131.674 43.402 132.333 43.934C133.017 44.4407 133.891 44.694 134.955 44.694C136.019 44.694 136.792 44.4787 137.273 44.048C137.78 43.6173 138.033 43.1233 138.033 42.566C138.033 41.7553 137.678 41.2107 136.969 40.932C136.26 40.628 135.272 40.3367 134.005 40.058C133.194 39.8807 132.371 39.6653 131.535 39.412C130.699 39.1587 129.926 38.842 129.217 38.462C128.533 38.0567 127.976 37.55 127.545 36.942C127.114 36.3087 126.899 35.536 126.899 34.624C126.899 32.952 127.558 31.546 128.875 30.406C130.218 29.266 132.092 28.696 134.499 28.696C136.728 28.696 138.502 29.2153 139.819 30.254C141.162 31.2927 141.96 32.724 142.213 34.548H137.615C137.336 33.1547 136.285 32.458 134.461 32.458C133.549 32.458 132.84 32.6353 132.333 32.99C131.852 33.3447 131.611 33.788 131.611 34.32C131.611 34.8773 131.978 35.3207 132.713 35.65C133.448 35.9793 134.423 36.2833 135.639 36.562C136.956 36.866 138.16 37.208 139.249 37.588C140.364 37.9427 141.25 38.4873 141.909 39.222C142.568 39.9313 142.897 40.9573 142.897 42.3C142.922 43.4653 142.618 44.5167 141.985 45.454C141.352 46.3913 140.44 47.126 139.249 47.658C138.058 48.19 136.652 48.456 135.031 48.456ZM157.77 48.456C155.946 48.456 154.299 48.038 152.83 47.202C151.386 46.366 150.233 45.2133 149.372 43.744C148.536 42.2493 148.118 40.5267 148.118 38.576C148.118 36.6253 148.548 34.9153 149.41 33.446C150.271 31.9513 151.424 30.786 152.868 29.95C154.337 29.114 155.984 28.696 157.808 28.696C159.606 28.696 161.228 29.114 162.672 29.95C164.141 30.786 165.294 31.9513 166.13 33.446C166.991 34.9153 167.422 36.6253 167.422 38.576C167.422 40.5267 166.991 42.2493 166.13 43.744C165.294 45.2133 164.141 46.366 162.672 47.202C161.202 48.038 159.568 48.456 157.77 48.456ZM157.77 44.238C159.036 44.238 160.138 43.7693 161.076 42.832C162.013 41.8693 162.482 40.4507 162.482 38.576C162.482 36.7013 162.013 35.2953 161.076 34.358C160.138 33.3953 159.049 32.914 157.808 32.914C156.516 32.914 155.401 33.3953 154.464 34.358C153.552 35.2953 153.096 36.7013 153.096 38.576C153.096 40.4507 153.552 41.8693 154.464 42.832C155.401 43.7693 156.503 44.238 157.77 44.238Z" fill="#02245B"/>
<path d="M175.56 48.266C174.673 48.266 173.939 47.9873 173.356 47.43C172.799 46.8727 172.52 46.2013 172.52 45.416C172.52 44.6053 172.799 43.9213 173.356 43.364C173.939 42.8067 174.673 42.528 175.56 42.528C176.447 42.528 177.169 42.8067 177.726 43.364C178.309 43.9213 178.6 44.6053 178.6 45.416C178.6 46.2013 178.309 46.8727 177.726 47.43C177.169 47.9873 176.447 48.266 175.56 48.266Z" fill="#FF5E14"/>
<path d="M173.356 47.43L172.649 48.1371L172.657 48.145L172.665 48.1526L173.356 47.43ZM173.356 43.364L172.665 42.6414L172.657 42.649L172.649 42.6569L173.356 43.364ZM177.726 43.364L177.019 44.0711L177.027 44.079L177.035 44.0866L177.726 43.364ZM177.726 47.43L177.035 46.7074L177.027 46.715L177.019 46.7229L177.726 47.43ZM175.56 47.266C174.903 47.266 174.424 47.0682 174.047 46.7074L172.665 48.1526C173.453 48.9064 174.444 49.266 175.56 49.266V47.266ZM174.063 46.7229C173.693 46.3523 173.52 45.935 173.52 45.416H171.52C171.52 46.4676 171.905 47.393 172.649 48.1371L174.063 46.7229ZM173.52 45.416C173.52 44.8621 173.699 44.435 174.063 44.0711L172.649 42.6569C171.898 43.4077 171.52 44.3486 171.52 45.416H173.52ZM174.047 44.0866C174.424 43.7258 174.903 43.528 175.56 43.528V41.528C174.444 41.528 173.453 41.8876 172.665 42.6414L174.047 44.0866ZM175.56 43.528C176.218 43.528 176.673 43.7254 177.019 44.0711L178.433 42.6569C177.664 41.8879 176.676 41.528 175.56 41.528V43.528ZM177.035 44.0866C177.419 44.4542 177.6 44.8766 177.6 45.416H179.6C179.6 44.3341 179.198 43.3885 178.417 42.6414L177.035 44.0866ZM177.6 45.416C177.6 45.9203 177.426 46.333 177.035 46.7074L178.417 48.1526C179.191 47.4123 179.6 46.4824 179.6 45.416H177.6ZM177.019 46.7229C176.673 47.0686 176.218 47.266 175.56 47.266V49.266C176.676 49.266 177.664 48.9061 178.433 48.1371L177.019 46.7229Z" fill="#FF5E14"/>
</svg>
